<svg id="Layer_1" data-name="Layer 1" xmlns="http://www.w3.org/2000/svg" viewBox="0 0 264.56 50.28"><defs><style>.cls-1{fill:#316d8e;}</style></defs><title>logo-homepage_transparent</title><path class="cls-1" d="M97.74,76.14V74a7.34,7.34,0,0,1-5.62,2.4,7.5,7.5,0,0,1-5.58-2,8,8,0,0,1-2-4.36,41.92,41.92,0,0,1-.31-5.23,31.27,31.27,0,0,1,.31-5.19,7,7,0,0,1,7.53-6.4,7.12,7.12,0,0,1,5.54,2.26V45.11h5.67v31Zm-.78-16a3.31,3.31,0,0,0-3.23-1.88,3.28,3.28,0,0,0-3.35,2.18,15.47,15.47,0,0,0-.48,4.32,12.88,12.88,0,0,0,.48,4.31,3.67,3.67,0,0,0,6.58.35,12.12,12.12,0,0,0,.65-4.66A12,12,0,0,0,97,60.15" transform="translate(-53.77 -44.94)"/><path class="cls-1" d="M121.33,76.14V74a7.38,7.38,0,0,1-5.63,2.4,7.5,7.5,0,0,1-5.58-2,8,8,0,0,1-2-4.36,44,44,0,0,1-.31-5.23,31.27,31.27,0,0,1,.31-5.19,7,7,0,0,1,7.54-6.4,7.1,7.1,0,0,1,5.53,2.26V45.11h5.67v31Zm-.79-16a3.69,3.69,0,0,0-6.58.3,15.47,15.47,0,0,0-.48,4.32,12.88,12.88,0,0,0,.48,4.31,3.67,3.67,0,0,0,6.58.35,11.92,11.92,0,0,0,.65-4.66,11.83,11.83,0,0,0-.65-4.62" transform="translate(-53.77 -44.94)"/><path class="cls-1" d="M150.1,76.14v-2a7.68,7.68,0,0,1-5.58,2.18,7.76,7.76,0,0,1-5.75-2,7.23,7.23,0,0,1-1.92-5.14,6.14,6.14,0,0,1,2-4.71c1.31-1.22,3.22-1.83,5.8-1.87H150V61.54c0-2.35-1.4-3.53-4.23-3.57a5.44,5.44,0,0,0-4.36,1.87l-3.62-3.52a8.81,8.81,0,0,1,3.53-2.49,13.23,13.23,0,0,1,4.67-.65c6.45,0,9.67,2.65,9.67,8V76.14ZM150,66.56h-4.49c-2.09,0-3.14.82-3.18,2.57s1.09,2.61,3.26,2.61c1.92,0,3.19-.48,3.88-1.44a4.61,4.61,0,0,0,.53-2.52Z" transform="translate(-53.77 -44.94)"/><path class="cls-1" d="M172.33,59.63a4.3,4.3,0,0,0-3-1.35,3.33,3.33,0,0,0-2.48,1,4.25,4.25,0,0,0-1.18,3.18V76.14H160V53.44h5.53v2.18a7.12,7.12,0,0,1,5.71-2.44,7.24,7.24,0,0,1,5.36,2.13Z" transform="translate(-53.77 -44.94)"/><path class="cls-1" d="M185.76,76.41A9.82,9.82,0,0,1,179,74.05q-3.39-3-3.4-9.28c0-4.14,1.14-7.19,3.4-9.24a9.66,9.66,0,0,1,6.76-2.35,9.9,9.9,0,0,1,7.5,3l-3.84,3.83a5.05,5.05,0,0,0-3.66-1.78,4,4,0,0,0-3.27,1.52c-.78,1-1.18,2.66-1.22,5s.39,4,1.22,5a4.21,4.21,0,0,0,3.27,1.53,4.91,4.91,0,0,0,3.66-1.79l3.84,3.79a10.13,10.13,0,0,1-7.5,3.1" transform="translate(-53.77 -44.94)"/><path class="cls-1" d="M209,76.14V62.29a4,4,0,0,0-1.18-3.14,3.88,3.88,0,0,0-2.52-.87,3.46,3.46,0,0,0-2.49.87,4,4,0,0,0-1.18,3.14V76.14h-5.66v-31h5.66V55.53A7.31,7.31,0,0,1,207,53.18a7.18,7.18,0,0,1,5.67,2.35,9.09,9.09,0,0,1,1.92,5.93V76.14Z" transform="translate(-53.77 -44.94)"/><path class="cls-1" d="M219.76,44.94h5.8v4.62h-5.8Zm.09,8.5h5.66v22.7h-5.66Z" transform="translate(-53.77 -44.94)"/><path class="cls-1" d="M238.07,76.14a6.25,6.25,0,0,1-5-2,6.39,6.39,0,0,1-1.57-4.44V58.41h-2.4V54.09h2.4V47.38h5.66v6.71h4v4.32h-4V69.3a1.8,1.8,0,0,0,2,2h2v4.79Z" transform="translate(-53.77 -44.94)"/><path class="cls-1" d="M249,66.55a5.25,5.25,0,0,0,1.31,3.67A5,5,0,0,0,254,71.61a7,7,0,0,0,5.14-2.14l3.45,3.36a12.92,12.92,0,0,1-3.67,2.66,12,12,0,0,1-5,.92c-7,0-10.46-3.88-10.51-11.64a12.71,12.71,0,0,1,2.75-8.59,9,9,0,0,1,7.15-3,9.22,9.22,0,0,1,7.32,3.1A11.61,11.61,0,0,1,263.22,64v2.52Zm8.11-6.31a4.23,4.23,0,0,0-7.59,0,6.93,6.93,0,0,0-.52,2.44h8.63a5.53,5.53,0,0,0-.52-2.44" transform="translate(-53.77 -44.94)"/><path class="cls-1" d="M275.74,76.41A9.82,9.82,0,0,1,269,74.05q-3.41-3-3.4-9.28c0-4.14,1.13-7.19,3.4-9.24a9.66,9.66,0,0,1,6.76-2.35,9.88,9.88,0,0,1,7.49,3l-3.84,3.83a5,5,0,0,0-3.65-1.78,4,4,0,0,0-3.27,1.52c-.79,1-1.18,2.66-1.22,5s.39,4,1.22,5a4.19,4.19,0,0,0,3.27,1.53,4.91,4.91,0,0,0,3.65-1.79l3.84,3.79a10.11,10.11,0,0,1-7.49,3.1" transform="translate(-53.77 -44.94)"/><path class="cls-1" d="M293.87,76.14a6.25,6.25,0,0,1-5-2,6.39,6.39,0,0,1-1.57-4.44V58.41h-2.4V54.09h2.4V47.38H293v6.71h4v4.32h-4V69.3a1.79,1.79,0,0,0,2,2H297v4.79Z" transform="translate(-53.77 -44.94)"/><path class="cls-1" d="M315.54,74.58a11.75,11.75,0,0,1-6.84,1.83,19.45,19.45,0,0,1-5.19-.57,10.27,10.27,0,0,1-4.49-2.7l3.7-3.71a8.35,8.35,0,0,0,6.06,2.14c2.66,0,4-.79,4-2.36,0-1.22-.78-1.91-2.4-2.09l-3.57-.35c-4.4-.43-6.58-2.52-6.63-6.36a6.4,6.4,0,0,1,2.66-5.4A9.8,9.8,0,0,1,309,53.17c3.88,0,6.75.88,8.67,2.66l-3.49,3.54c-1.13-1-2.87-1.49-5.27-1.53-2.14,0-3.18.7-3.23,2.18,0,1.13.79,1.79,2.36,2l3.57.35c4.49.43,6.71,2.66,6.75,6.67a6.45,6.45,0,0,1-2.78,5.58" transform="translate(-53.77 -44.94)"/><path class="cls-1" d="M89.52,93.18H86.19l-.68,2H84.1l3.2-8.79h1.11l3.2,8.79H90.2ZM89.14,92l-1.27-3.84h0L86.57,92Z" transform="translate(-53.77 -44.94)"/><path class="cls-1" d="M100.46,86.35h3.07a3,3,0,0,1,2.68,1.48c.44.74.47,1.07.47,2.91s-.09,2.32-.49,2.94a3.12,3.12,0,0,1-2.74,1.46h-3V86.35Zm1.33,7.53h1.6a1.83,1.83,0,0,0,1.63-.77c.29-.44.33-.69.33-2.32s0-2-.4-2.44a1.67,1.67,0,0,0-1.56-.74h-1.6Z" transform="translate(-53.77 -44.94)"/><polygon class="cls-1" points="56.95 41.41 62.57 41.41 62.57 42.67 58.28 42.67 58.28 45.18 61.94 45.18 61.94 46.36 58.28 46.36 58.28 48.94 62.57 48.94 62.57 50.2 56.95 50.2 56.95 41.41"/><path class="cls-1" d="M120.17,93a4.05,4.05,0,0,0,2.49.88c1.09,0,1.74-.49,1.74-1.22a1.15,1.15,0,0,0-1.15-1.19l-1.16-.16a2.43,2.43,0,0,1-2.33-2.47,2.55,2.55,0,0,1,2.86-2.57,5.2,5.2,0,0,1,2.86.92l-.74,1.1a4.13,4.13,0,0,0-2.18-.69c-.81,0-1.47.42-1.47,1.26,0,.5.36,1,1.25,1.13l1,.14a2.5,2.5,0,0,1,2.41,2.53c0,1.62-1.2,2.55-3.09,2.55A4.91,4.91,0,0,1,119.29,94Z" transform="translate(-53.77 -44.94)"/><rect class="cls-1" x="75.85" y="41.41" width="1.33" height="8.79"/><path class="cls-1" d="M138.13,90.3h3.12v1.79a3.16,3.16,0,0,1-5.89,1.54c-.28-.52-.38-.78-.38-2.89s.1-2.37.38-2.89a3.16,3.16,0,0,1,5.85,1H139.8a1.78,1.78,0,0,0-1.68-1.28,1.69,1.69,0,0,0-1.36.65c-.35.44-.44.69-.44,2.49s.09,2.05.44,2.5a1.71,1.71,0,0,0,1.36.64,1.78,1.78,0,0,0,1.8-1.86v-.46h-1.79V90.3Z" transform="translate(-53.77 -44.94)"/><polygon class="cls-1" points="91.52 41.41 92.78 41.41 96.75 47.66 96.78 47.66 96.78 41.41 98.11 41.41 98.11 50.2 96.85 50.2 92.88 43.95 92.85 43.95 92.85 50.2 91.52 50.2 91.52 41.41"/><path class="cls-1" d="M161.65,86.35h3.07a3,3,0,0,1,2.68,1.48c.43.74.47,1.07.47,2.91s-.1,2.32-.5,2.94a3.12,3.12,0,0,1-2.74,1.46h-3V86.35ZM163,93.88h1.59a1.82,1.82,0,0,0,1.63-.77c.3-.44.33-.69.33-2.32s0-2-.39-2.44a1.69,1.69,0,0,0-1.57-.74H163v6.27Z" transform="translate(-53.77 -44.94)"/><path class="cls-1" d="M171.9,86.35h3.43a2.58,2.58,0,0,1,1.79.58A2.44,2.44,0,0,1,178,88.8a2.5,2.5,0,0,1-1.7,2.44l2,3.9h-1.58l-1.81-3.75h-1.71v3.75H171.9V86.35Zm1.33,3.85h2a1.36,1.36,0,0,0,1.49-1.4,1.2,1.2,0,0,0-.44-1,1.53,1.53,0,0,0-1-.27h-2.09Z" transform="translate(-53.77 -44.94)"/><polygon class="cls-1" points="128.14 41.41 133.76 41.41 133.76 42.67 129.47 42.67 129.47 45.18 133.13 45.18 133.13 46.36 129.47 46.36 129.47 48.94 133.76 48.94 133.76 50.2 128.14 50.2 128.14 41.41"/><path class="cls-1" d="M195.76,93.18h-3.34l-.68,2h-1.41l3.2-8.79h1.11l3.2,8.79h-1.41ZM195.37,92l-1.27-3.84h0L192.8,92Z" transform="translate(-53.77 -44.94)"/><polygon class="cls-1" points="147.49 41.41 148.75 41.41 151.27 47.14 153.74 41.41 155 41.41 155 50.2 153.67 50.2 153.67 44.72 153.64 44.72 151.8 48.94 150.69 48.94 148.85 44.72 148.82 44.72 148.82 50.2 147.49 50.2 147.49 41.41"/><path class="cls-1" d="M213.2,93a4.08,4.08,0,0,0,2.5.88c1.09,0,1.74-.49,1.74-1.22a1.15,1.15,0,0,0-1.15-1.19l-1.16-.16a2.43,2.43,0,0,1-2.33-2.47,2.55,2.55,0,0,1,2.86-2.57,5.2,5.2,0,0,1,2.86.92l-.74,1.1a4.13,4.13,0,0,0-2.18-.69c-.81,0-1.47.42-1.47,1.26,0,.5.36,1,1.25,1.13l1,.14a2.49,2.49,0,0,1,2.4,2.53c0,1.62-1.19,2.55-3.08,2.55A4.91,4.91,0,0,1,212.33,94Z" transform="translate(-53.77 -44.94)"/><polygon class="cls-1" points="174.33 41.41 179.95 41.41 179.95 42.67 175.66 42.67 175.66 45.18 179.32 45.18 179.32 46.36 175.66 46.36 175.66 48.94 179.95 48.94 179.95 50.2 174.33 50.2 174.33 41.41"/><polygon class="cls-1" points="183.67 41.41 184.93 41.41 188.9 47.66 188.93 47.66 188.93 41.41 190.26 41.41 190.26 50.2 189 50.2 185.03 43.95 185 43.95 185 50.2 183.67 50.2 183.67 41.41"/><polygon class="cls-1" points="196.09 42.59 193.68 42.59 193.68 41.41 199.83 41.41 199.83 42.59 197.42 42.59 197.42 50.2 196.09 50.2 196.09 42.59"/><polygon class="cls-1" points="203.24 41.41 208.86 41.41 208.86 42.67 204.57 42.67 204.57 45.18 208.23 45.18 208.23 46.36 204.57 46.36 204.57 48.94 208.86 48.94 208.86 50.2 203.24 50.2 203.24 41.41"/><path class="cls-1" d="M266.35,86.35h3.43a2.58,2.58,0,0,1,1.79.58,2.48,2.48,0,0,1,.88,1.87,2.5,2.5,0,0,1-1.71,2.44l2,3.9H271.2l-1.81-3.75h-1.71v3.75h-1.33V86.35Zm1.33,3.85h2a1.37,1.37,0,0,0,1.5-1.4,1.21,1.21,0,0,0-.45-1,1.5,1.5,0,0,0-1-.27h-2.09V90.2Z" transform="translate(-53.77 -44.94)"/><path class="cls-1" d="M276.36,86.35h3.18a2.9,2.9,0,0,1,2,.61,2.62,2.62,0,0,1,1,2.1,2.66,2.66,0,0,1-2.76,2.65h-2v3.43h-1.33Zm1.33,4.1h2A1.39,1.39,0,0,0,281.13,89a1.32,1.32,0,0,0-.56-1.18,1.62,1.62,0,0,0-1-.24h-1.92v2.84Z" transform="translate(-53.77 -44.94)"/><path class="cls-1" d="M286.15,86.35h3.44a2.58,2.58,0,0,1,1.79.58,2.47,2.47,0,0,1,.87,1.87,2.5,2.5,0,0,1-1.7,2.44l2,3.9H291l-1.82-3.75h-1.7v3.75h-1.34Zm1.34,3.85h2A1.36,1.36,0,0,0,291,88.8a1.2,1.2,0,0,0-.44-1,1.53,1.53,0,0,0-1-.27h-2.08V90.2Z" transform="translate(-53.77 -44.94)"/><rect class="cls-1" x="242.4" y="41.41" width="1.33" height="8.79"/><path class="cls-1" d="M301.93,93a4.05,4.05,0,0,0,2.49.88c1.09,0,1.75-.49,1.75-1.22A1.15,1.15,0,0,0,305,91.47l-1.16-.16a2.44,2.44,0,0,1-2.34-2.47,2.56,2.56,0,0,1,2.87-2.57,5.17,5.17,0,0,1,2.85.92l-.74,1.1a4.1,4.1,0,0,0-2.18-.69c-.81,0-1.46.42-1.46,1.26,0,.5.36,1,1.24,1.13l1,.14a2.5,2.5,0,0,1,2.41,2.53c0,1.62-1.2,2.55-3.09,2.55A4.92,4.92,0,0,1,301.05,94Z" transform="translate(-53.77 -44.94)"/><polygon class="cls-1" points="257.62 41.41 263.24 41.41 263.24 42.67 258.95 42.67 258.95 45.18 262.61 45.18 262.61 46.36 258.95 46.36 258.95 48.94 263.24 48.94 263.24 50.2 257.62 50.2 257.62 41.41"/><path class="cls-1" d="M66,51.84c-2.23-1.42-3-5.12-3.16-6.61-.08-.53-.27-.21-.23,0,0,0-.17,19.15-.88,26-.49,4.76-7.93,6.18-8,13.93.19,4.63,5,6.8,7.52,7.48a.19.19,0,0,1,.14.21l-.18,2a.18.18,0,0,0,.18.18h3.28s.14,0,.12-.19c-.12-1.07-.66-6.42-.39-8.2.76-4.89,11.1-10.57,11-19.91-.1-5.9-2-10.19-9.35-14.88m-4.4,37.94c-1.74-.16-5.92-.89-6.15-5-.2-3.61,3.13-6.85,6.28-7.89.14,0,.13.09.13.09l-.15,12.68s0,.11-.11.1m2.45-34.41a12,12,0,0,1,8.08,13.11c-.71,5.81-5,9.21-8,11.4C64,80,64,79.8,64,79.8l0-24.34c0-.08,0-.15.15-.09" transform="translate(-53.77 -44.94)"/></svg>